<svg width="14" height="14" viewBox="0 0 14 14" fill="none" xmlns="http://www.w3.org/2000/svg">
<path d="M13.4325 12.25C12.4807 10.6044 11.0138 9.42437 9.30192 8.86499C10.1487 8.3609 10.8066 7.59279 11.1746 6.67861C11.5425 5.76444 11.6002 4.75474 11.3388 3.80459C11.0774 2.85444 10.5113 2.01636 9.72753 1.41907C8.94372 0.821776 7.9855 0.498291 7.00005 0.498291C6.01459 0.498291 5.05638 0.821776 4.27256 1.41907C3.48875 2.01636 2.92267 2.85444 2.66126 3.80459C2.39985 4.75474 2.45756 5.76444 2.82554 6.67861C3.19351 7.59279 3.8514 8.3609 4.69817 8.86499C2.9863 9.42374 1.51942 10.6037 0.567547 12.25C0.53264 12.3069 0.509487 12.3702 0.499453 12.4363C0.489419 12.5023 0.492707 12.5696 0.509125 12.6343C0.525542 12.6991 0.554756 12.7598 0.595042 12.8131C0.635328 12.8663 0.685871 12.911 0.743688 12.9444C0.801505 12.9778 0.865425 12.9992 0.931677 13.0075C0.997929 13.0158 1.06517 13.0108 1.12944 12.9926C1.1937 12.9745 1.25369 12.9437 1.30585 12.902C1.35802 12.8604 1.40131 12.8087 1.43317 12.75C2.61067 10.715 4.69192 9.49999 7.00005 9.49999C9.30817 9.49999 11.3894 10.715 12.5669 12.75C12.5988 12.8087 12.6421 12.8604 12.6942 12.902C12.7464 12.9437 12.8064 12.9745 12.8707 12.9926C12.9349 13.0108 13.0022 13.0158 13.0684 13.0075C13.1347 12.9992 13.1986 12.9778 13.2564 12.9444C13.3142 12.911 13.3648 12.8663 13.4051 12.8131C13.4453 12.7598 13.4746 12.6991 13.491 12.6343C13.5074 12.5696 13.5107 12.5023 13.5006 12.4363C13.4906 12.3702 13.4675 12.3069 13.4325 12.25ZM3.50005 4.99999C3.50005 4.30776 3.70532 3.63107 4.0899 3.0555C4.47449 2.47992 5.02111 2.03132 5.66065 1.76641C6.3002 1.50151 7.00393 1.43219 7.68286 1.56724C8.3618 1.70229 8.98544 2.03563 9.47492 2.52512C9.9644 3.0146 10.2977 3.63824 10.4328 4.31718C10.5678 4.99611 10.4985 5.69984 10.2336 6.33939C9.96872 6.97893 9.52011 7.52555 8.94454 7.91014C8.36897 8.29472 7.69228 8.49999 7.00005 8.49999C6.07209 8.499 5.18243 8.12993 4.52627 7.47377C3.87011 6.81761 3.50104 5.92795 3.50005 4.99999Z" fill="#4A5568"/>
</svg>
